<mxfile host="app.diagrams.net" agent="Mozilla/5.0 (Windows NT 10.0; Win64; x64) AppleWebKit/537.36 (KHTML, like Gecko) Chrome/139.0.0.0 Safari/537.36" version="28.1.0">
  <diagram name="Page-1" id="iDUjFyiatcSbmVKgz-FS">
    <mxGraphModel dx="1426" dy="777" grid="1" gridSize="10" guides="1" tooltips="1" connect="1" arrows="1" fold="1" page="1" pageScale="1" pageWidth="827" pageHeight="1169" math="0" shadow="0">
      <root>
        <mxCell id="0" />
        <mxCell id="1" parent="0" />
        <mxCell id="E9-DuUrrzaGaegcEW7My-3" value="" style="edgeStyle=orthogonalEdgeStyle;rounded=0;orthogonalLoop=1;jettySize=auto;html=1;" edge="1" parent="1" source="xKMkGC5fBtsWNn4eI2Jt-6" target="E9-DuUrrzaGaegcEW7My-1">
          <mxGeometry relative="1" as="geometry" />
        </mxCell>
        <mxCell id="xKMkGC5fBtsWNn4eI2Jt-6" value="Start" style="html=1;dashed=0;whiteSpace=wrap;shape=mxgraph.dfd.start" parent="1" vertex="1">
          <mxGeometry x="366" y="30" width="104" height="40" as="geometry" />
        </mxCell>
        <mxCell id="xKMkGC5fBtsWNn4eI2Jt-7" value="END" style="html=1;dashed=0;whiteSpace=wrap;shape=mxgraph.dfd.start" parent="1" vertex="1">
          <mxGeometry x="366" y="1330" width="106" height="50" as="geometry" />
        </mxCell>
        <mxCell id="E9-DuUrrzaGaegcEW7My-5" style="edgeStyle=orthogonalEdgeStyle;rounded=0;orthogonalLoop=1;jettySize=auto;html=1;exitX=0.5;exitY=1;exitDx=0;exitDy=0;entryX=0.5;entryY=0;entryDx=0;entryDy=0;" edge="1" parent="1" source="E9-DuUrrzaGaegcEW7My-1" target="E9-DuUrrzaGaegcEW7My-4">
          <mxGeometry relative="1" as="geometry" />
        </mxCell>
        <mxCell id="E9-DuUrrzaGaegcEW7My-1" value="ป้อนเลข 1 เพื่อเล่น / -1 เพื่อออก" style="rounded=0;whiteSpace=wrap;html=1;" vertex="1" parent="1">
          <mxGeometry x="357.5" y="90" width="120" height="60" as="geometry" />
        </mxCell>
        <mxCell id="E9-DuUrrzaGaegcEW7My-7" style="edgeStyle=orthogonalEdgeStyle;rounded=0;orthogonalLoop=1;jettySize=auto;html=1;entryX=0.5;entryY=0;entryDx=0;entryDy=0;" edge="1" parent="1" source="E9-DuUrrzaGaegcEW7My-4" target="E9-DuUrrzaGaegcEW7My-6">
          <mxGeometry relative="1" as="geometry" />
        </mxCell>
        <mxCell id="E9-DuUrrzaGaegcEW7My-9" style="edgeStyle=orthogonalEdgeStyle;rounded=0;orthogonalLoop=1;jettySize=auto;html=1;entryX=1;entryY=0.5;entryDx=0;entryDy=0;" edge="1" parent="1" source="E9-DuUrrzaGaegcEW7My-4" target="E9-DuUrrzaGaegcEW7My-10">
          <mxGeometry relative="1" as="geometry">
            <mxPoint x="560" y="730" as="targetPoint" />
            <Array as="points">
              <mxPoint x="570" y="220" />
              <mxPoint x="570" y="1290" />
            </Array>
          </mxGeometry>
        </mxCell>
        <mxCell id="E9-DuUrrzaGaegcEW7My-4" value="ป้อนเลข 1 หรือ -1?&amp;nbsp;" style="rhombus;whiteSpace=wrap;html=1;" vertex="1" parent="1">
          <mxGeometry x="357.5" y="170" width="121" height="100" as="geometry" />
        </mxCell>
        <mxCell id="E9-DuUrrzaGaegcEW7My-12" style="edgeStyle=orthogonalEdgeStyle;rounded=0;orthogonalLoop=1;jettySize=auto;html=1;" edge="1" parent="1" source="E9-DuUrrzaGaegcEW7My-6" target="E9-DuUrrzaGaegcEW7My-8">
          <mxGeometry relative="1" as="geometry" />
        </mxCell>
        <mxCell id="E9-DuUrrzaGaegcEW7My-6" value="มอบให้ผู้เล่น 100" style="rounded=0;whiteSpace=wrap;html=1;" vertex="1" parent="1">
          <mxGeometry x="358.5" y="290" width="120" height="60" as="geometry" />
        </mxCell>
        <mxCell id="E9-DuUrrzaGaegcEW7My-14" value="" style="edgeStyle=orthogonalEdgeStyle;rounded=0;orthogonalLoop=1;jettySize=auto;html=1;entryX=0.5;entryY=0;entryDx=0;entryDy=0;" edge="1" parent="1" source="E9-DuUrrzaGaegcEW7My-32" target="E9-DuUrrzaGaegcEW7My-19">
          <mxGeometry relative="1" as="geometry">
            <mxPoint x="418.5" y="540" as="targetPoint" />
          </mxGeometry>
        </mxCell>
        <mxCell id="E9-DuUrrzaGaegcEW7My-8" value="ทำการสุ่มเลข 1 - 100 ใหห้ผู้เล่นทาย" style="rounded=0;whiteSpace=wrap;html=1;" vertex="1" parent="1">
          <mxGeometry x="358.5" y="370" width="120" height="60" as="geometry" />
        </mxCell>
        <mxCell id="E9-DuUrrzaGaegcEW7My-54" value="" style="edgeStyle=orthogonalEdgeStyle;rounded=0;orthogonalLoop=1;jettySize=auto;html=1;" edge="1" parent="1" source="E9-DuUrrzaGaegcEW7My-10" target="xKMkGC5fBtsWNn4eI2Jt-7">
          <mxGeometry relative="1" as="geometry" />
        </mxCell>
        <mxCell id="E9-DuUrrzaGaegcEW7My-10" value="" style="ellipse;whiteSpace=wrap;html=1;aspect=fixed;" vertex="1" parent="1">
          <mxGeometry x="399" y="1270" width="40" height="40" as="geometry" />
        </mxCell>
        <mxCell id="E9-DuUrrzaGaegcEW7My-29" style="edgeStyle=orthogonalEdgeStyle;rounded=0;orthogonalLoop=1;jettySize=auto;html=1;exitX=0.5;exitY=1;exitDx=0;exitDy=0;" edge="1" parent="1" source="E9-DuUrrzaGaegcEW7My-17" target="E9-DuUrrzaGaegcEW7My-28">
          <mxGeometry relative="1" as="geometry" />
        </mxCell>
        <mxCell id="E9-DuUrrzaGaegcEW7My-17" value="หากทายผิด ลบคะแนนของผู้เล่น 10 และแจ้งคะแนนปัจจุบันให้ผู้เล่นทราบ" style="rounded=0;whiteSpace=wrap;html=1;" vertex="1" parent="1">
          <mxGeometry x="327.75" y="730" width="181.5" height="80" as="geometry" />
        </mxCell>
        <mxCell id="E9-DuUrrzaGaegcEW7My-22" value="" style="edgeStyle=orthogonalEdgeStyle;rounded=0;orthogonalLoop=1;jettySize=auto;html=1;" edge="1" parent="1" source="E9-DuUrrzaGaegcEW7My-20" target="E9-DuUrrzaGaegcEW7My-17">
          <mxGeometry relative="1" as="geometry" />
        </mxCell>
        <mxCell id="E9-DuUrrzaGaegcEW7My-51" style="edgeStyle=orthogonalEdgeStyle;rounded=0;orthogonalLoop=1;jettySize=auto;html=1;exitX=0;exitY=0.5;exitDx=0;exitDy=0;" edge="1" parent="1" source="E9-DuUrrzaGaegcEW7My-20" target="E9-DuUrrzaGaegcEW7My-43">
          <mxGeometry relative="1" as="geometry" />
        </mxCell>
        <mxCell id="E9-DuUrrzaGaegcEW7My-20" value="ป้อนเลขที่ถูกต้องหรือไม่?" style="rhombus;whiteSpace=wrap;html=1;" vertex="1" parent="1">
          <mxGeometry x="353.75" y="590" width="127.5" height="110" as="geometry" />
        </mxCell>
        <mxCell id="E9-DuUrrzaGaegcEW7My-25" style="edgeStyle=orthogonalEdgeStyle;rounded=0;orthogonalLoop=1;jettySize=auto;html=1;entryX=0.5;entryY=0;entryDx=0;entryDy=0;" edge="1" parent="1" source="E9-DuUrrzaGaegcEW7My-23" target="E9-DuUrrzaGaegcEW7My-10">
          <mxGeometry relative="1" as="geometry" />
        </mxCell>
        <mxCell id="E9-DuUrrzaGaegcEW7My-23" value="แสดงเลขที่ถูกต้องและคะแนนที่เหลือ" style="rounded=0;whiteSpace=wrap;html=1;" vertex="1" parent="1">
          <mxGeometry x="358.5" y="1190" width="120" height="60" as="geometry" />
        </mxCell>
        <mxCell id="E9-DuUrrzaGaegcEW7My-34" style="edgeStyle=orthogonalEdgeStyle;rounded=0;orthogonalLoop=1;jettySize=auto;html=1;" edge="1" parent="1" source="E9-DuUrrzaGaegcEW7My-28" target="E9-DuUrrzaGaegcEW7My-30">
          <mxGeometry relative="1" as="geometry" />
        </mxCell>
        <mxCell id="E9-DuUrrzaGaegcEW7My-28" value="แสดงที่เลขมากกว่า หรือ น้อยกว่า ตัวเลขที่ผู้เล่นทาย" style="rounded=0;whiteSpace=wrap;html=1;" vertex="1" parent="1">
          <mxGeometry x="349.5" y="830" width="138" height="60" as="geometry" />
        </mxCell>
        <mxCell id="E9-DuUrrzaGaegcEW7My-36" value="" style="edgeStyle=orthogonalEdgeStyle;rounded=0;orthogonalLoop=1;jettySize=auto;html=1;" edge="1" parent="1" source="E9-DuUrrzaGaegcEW7My-30" target="E9-DuUrrzaGaegcEW7My-35">
          <mxGeometry relative="1" as="geometry" />
        </mxCell>
        <mxCell id="E9-DuUrrzaGaegcEW7My-30" value="" style="ellipse;whiteSpace=wrap;html=1;aspect=fixed;" vertex="1" parent="1">
          <mxGeometry x="398.5" y="910" width="40" height="40" as="geometry" />
        </mxCell>
        <mxCell id="E9-DuUrrzaGaegcEW7My-47" value="" style="edgeStyle=orthogonalEdgeStyle;rounded=0;orthogonalLoop=1;jettySize=auto;html=1;" edge="1" parent="1" source="E9-DuUrrzaGaegcEW7My-35" target="E9-DuUrrzaGaegcEW7My-37">
          <mxGeometry relative="1" as="geometry" />
        </mxCell>
        <mxCell id="E9-DuUrrzaGaegcEW7My-35" value="หากผู้เล่นทายผิดจนคะแนนเหลือ 0 จะแพ้ทันที" style="rounded=0;whiteSpace=wrap;html=1;" vertex="1" parent="1">
          <mxGeometry x="358.5" y="970" width="120" height="60" as="geometry" />
        </mxCell>
        <mxCell id="E9-DuUrrzaGaegcEW7My-48" style="edgeStyle=orthogonalEdgeStyle;rounded=0;orthogonalLoop=1;jettySize=auto;html=1;entryX=0.5;entryY=0;entryDx=0;entryDy=0;" edge="1" parent="1" source="E9-DuUrrzaGaegcEW7My-37" target="E9-DuUrrzaGaegcEW7My-50">
          <mxGeometry relative="1" as="geometry">
            <mxPoint x="418.5" y="1180" as="targetPoint" />
          </mxGeometry>
        </mxCell>
        <mxCell id="E9-DuUrrzaGaegcEW7My-37" value="แสดงข้อความ Game over" style="rounded=0;whiteSpace=wrap;html=1;" vertex="1" parent="1">
          <mxGeometry x="347.5" y="1050" width="142" height="60" as="geometry" />
        </mxCell>
        <mxCell id="E9-DuUrrzaGaegcEW7My-39" value="" style="edgeStyle=orthogonalEdgeStyle;rounded=0;orthogonalLoop=1;jettySize=auto;html=1;entryX=0.5;entryY=0;entryDx=0;entryDy=0;" edge="1" parent="1" source="E9-DuUrrzaGaegcEW7My-8" target="E9-DuUrrzaGaegcEW7My-32">
          <mxGeometry relative="1" as="geometry">
            <mxPoint x="419" y="430" as="sourcePoint" />
            <mxPoint x="403" y="510" as="targetPoint" />
          </mxGeometry>
        </mxCell>
        <mxCell id="E9-DuUrrzaGaegcEW7My-32" value="" style="ellipse;whiteSpace=wrap;html=1;aspect=fixed;" vertex="1" parent="1">
          <mxGeometry x="398.5" y="450" width="40" height="40" as="geometry" />
        </mxCell>
        <mxCell id="E9-DuUrrzaGaegcEW7My-40" value="" style="edgeStyle=orthogonalEdgeStyle;rounded=0;orthogonalLoop=1;jettySize=auto;html=1;entryX=1;entryY=0.5;entryDx=0;entryDy=0;" edge="1" parent="1" source="E9-DuUrrzaGaegcEW7My-30" target="E9-DuUrrzaGaegcEW7My-32">
          <mxGeometry relative="1" as="geometry">
            <mxPoint x="438" y="470" as="targetPoint" />
            <mxPoint x="439" y="930" as="sourcePoint" />
            <Array as="points">
              <mxPoint x="540" y="930" />
              <mxPoint x="540" y="470" />
            </Array>
          </mxGeometry>
        </mxCell>
        <mxCell id="E9-DuUrrzaGaegcEW7My-42" value="" style="edgeStyle=orthogonalEdgeStyle;rounded=0;orthogonalLoop=1;jettySize=auto;html=1;" edge="1" parent="1" source="E9-DuUrrzaGaegcEW7My-19" target="E9-DuUrrzaGaegcEW7My-20">
          <mxGeometry relative="1" as="geometry" />
        </mxCell>
        <mxCell id="E9-DuUrrzaGaegcEW7My-19" value="ให้ผู้เล่นป้อนเลขที่ถูกต้อง" style="rounded=0;whiteSpace=wrap;html=1;" vertex="1" parent="1">
          <mxGeometry x="358.5" y="510" width="120" height="60" as="geometry" />
        </mxCell>
        <mxCell id="E9-DuUrrzaGaegcEW7My-46" style="edgeStyle=orthogonalEdgeStyle;rounded=0;orthogonalLoop=1;jettySize=auto;html=1;entryX=0;entryY=0.5;entryDx=0;entryDy=0;exitX=0.5;exitY=1;exitDx=0;exitDy=0;" edge="1" parent="1" source="E9-DuUrrzaGaegcEW7My-43" target="E9-DuUrrzaGaegcEW7My-50">
          <mxGeometry relative="1" as="geometry">
            <mxPoint x="290" y="1280" as="targetPoint" />
          </mxGeometry>
        </mxCell>
        <mxCell id="E9-DuUrrzaGaegcEW7My-43" value="แสดงข้อความ Win" style="rounded=0;whiteSpace=wrap;html=1;" vertex="1" parent="1">
          <mxGeometry x="200" y="1050" width="142" height="60" as="geometry" />
        </mxCell>
        <mxCell id="E9-DuUrrzaGaegcEW7My-52" style="edgeStyle=orthogonalEdgeStyle;rounded=0;orthogonalLoop=1;jettySize=auto;html=1;entryX=0.5;entryY=0;entryDx=0;entryDy=0;" edge="1" parent="1" source="E9-DuUrrzaGaegcEW7My-50" target="E9-DuUrrzaGaegcEW7My-23">
          <mxGeometry relative="1" as="geometry" />
        </mxCell>
        <mxCell id="E9-DuUrrzaGaegcEW7My-50" value="" style="ellipse;whiteSpace=wrap;html=1;aspect=fixed;" vertex="1" parent="1">
          <mxGeometry x="398.5" y="1129" width="40" height="40" as="geometry" />
        </mxCell>
        <mxCell id="E9-DuUrrzaGaegcEW7My-55" value="no" style="text;html=1;align=center;verticalAlign=middle;resizable=0;points=[];autosize=1;strokeColor=none;fillColor=none;" vertex="1" parent="1">
          <mxGeometry x="480" y="188" width="40" height="30" as="geometry" />
        </mxCell>
        <mxCell id="E9-DuUrrzaGaegcEW7My-56" value="yes" style="text;html=1;align=center;verticalAlign=middle;resizable=0;points=[];autosize=1;strokeColor=none;fillColor=none;" vertex="1" parent="1">
          <mxGeometry x="420" y="258" width="40" height="30" as="geometry" />
        </mxCell>
        <mxCell id="E9-DuUrrzaGaegcEW7My-57" value="yes" style="text;html=1;align=center;verticalAlign=middle;resizable=0;points=[];autosize=1;strokeColor=none;fillColor=none;" vertex="1" parent="1">
          <mxGeometry x="320" y="608" width="40" height="30" as="geometry" />
        </mxCell>
        <mxCell id="E9-DuUrrzaGaegcEW7My-58" value="no" style="text;html=1;align=center;verticalAlign=middle;resizable=0;points=[];autosize=1;strokeColor=none;fillColor=none;" vertex="1" parent="1">
          <mxGeometry x="420" y="688" width="40" height="30" as="geometry" />
        </mxCell>
      </root>
    </mxGraphModel>
  </diagram>
</mxfile>
